<svg id="Layer_1" data-name="Layer 1" xmlns="http://www.w3.org/2000/svg" viewBox="0 0 50.25 50.1"><defs><style>.cls-1{fill:#0a0a0a;}</style></defs><path class="cls-1" d="M200.62,216.31a4.79,4.79,0,0,0,.89,1.72c2.82,3.59,6.93,8.08,10.92,10.28a1,1,0,0,0,1.13-.12c3-2.59,5.07-5.51,9.32-2.68q4.14,2.75,8.19,5.64a5.68,5.68,0,0,1,1.37,8.33q-3.88,5.42-9.78,5.88c-11.21.9-22.33-8-29.69-16.45-6.33-7.3-13.57-20.27-6.85-29.33,2.64-3.55,7.81-6.43,11.35-2q2.13,2.66,5.47,7.81a10,10,0,0,1,1.58,3.4c.47,2.8-2,4.57-3.69,6.55a1,1,0,0,0-.21,1m18.17,12.47c-3.74,4.4-7.18,4.71-11.59.93-3.06-2.64-9.2-8.15-10.48-12.31-1-3.22,1.68-5.42,3.61-7.48a.9.9,0,0,0,.09-1.11q-2.67-4-5.4-7.94a5.21,5.21,0,0,0-1-1.17,1.58,1.58,0,0,0-2,0,9.7,9.7,0,0,0-4.51,9.16c.89,10.91,11.35,21.93,20,27.83,6.07,4.14,17.27,8.25,22-.11a1.49,1.49,0,0,0-.46-1.93l-8.75-6a1.12,1.12,0,0,0-1.5.2Z" transform="translate(-183.43 -195.32)"/></svg>