<svg id="Layer_1" data-name="Layer 1" xmlns="http://www.w3.org/2000/svg" viewBox="0 0 53.22 23.69"><defs><style>.cls-1{fill:#9a9a9a;}.cls-2{fill:#fff;}</style></defs><path class="cls-1" d="M315.93,138H279.4a5.54,5.54,0,0,1-5.54-5.54V119.87a5.55,5.55,0,0,1,5.54-5.54h36.53a5.54,5.54,0,0,1,5.53,5.54v12.61A5.54,5.54,0,0,1,315.93,138ZM279.4,116.45a3.43,3.43,0,0,0-3.43,3.42v12.61a3.44,3.44,0,0,0,3.43,3.43h36.53a3.43,3.43,0,0,0,3.42-3.43V119.87a3.42,3.42,0,0,0-3.42-3.42Z" transform="translate(-273.86 -114.33)"/><path class="cls-1" d="M323.32,122.41a3.77,3.77,0,0,1,0,7.53Z" transform="translate(-273.86 -114.33)"/><rect x="4.11" y="3.71" width="30.49" height="16.26" rx="2.6"/><path class="cls-2" d="M305.86,134.81H280.57a3.1,3.1,0,0,1-3.1-3.1V120.64a3.1,3.1,0,0,1,3.1-3.09h25.29a3.1,3.1,0,0,1,3.1,3.09v11.07A3.1,3.1,0,0,1,305.86,134.81Zm-25.29-16.26a2.1,2.1,0,0,0-2.1,2.09v11.07a2.1,2.1,0,0,0,2.1,2.1h25.29a2.1,2.1,0,0,0,2.1-2.1V120.64a2.1,2.1,0,0,0-2.1-2.09Z" transform="translate(-273.86 -114.33)"/></svg>