<svg id="Layer_1" data-name="Layer 1" xmlns="http://www.w3.org/2000/svg" viewBox="0 0 39.22 57"><defs><style>.cls-1{fill:none;stroke:#7f7f7f;stroke-miterlimit:10;stroke-width:0;}.cls-2{fill:#0a0a0a;}</style></defs><path class="cls-1" d="M211.51,189.1a6.34,6.34,0,0,0-6.35-6.34h-.53a6.34,6.34,0,0,0-6.36,6.34v19.27a6.35,6.35,0,0,0,6.36,6.35h.53a6.35,6.35,0,0,0,6.35-6.35V189.1" transform="translate(-185.27 -178.82)"/><path class="cls-2" d="M215.5,208.6a10.06,10.06,0,0,1-10.07,10.05h-1.07a10.06,10.06,0,0,1-10.07-10.05V188.87a10.06,10.06,0,0,1,10.07-10.05h1.07a10.06,10.06,0,0,1,10.07,10.05V208.6m-4-19.5a6.34,6.34,0,0,0-6.35-6.34h-.53a6.34,6.34,0,0,0-6.36,6.34v19.27a6.35,6.35,0,0,0,6.36,6.35h.53a6.35,6.35,0,0,0,6.35-6.35V189.1Z" transform="translate(-185.27 -178.82)"/><path class="cls-2" d="M202.44,227.6q-13.51-2.5-16.85-15.89c-.37-1.45-1-5.82,1.92-5.54a2,2,0,0,1,1.76,1.8q.66,9.89,8.48,13.91c10.6,5.44,22.23-2.06,22.71-13.59a2,2,0,0,1,1.81-2.07,1.86,1.86,0,0,1,1.51.44,1.45,1.45,0,0,1,.55.89,9.52,9.52,0,0,1-.1,3.94q-3.18,13.53-16.81,16.1a.56.56,0,0,0-.51.61l0,6a1.25,1.25,0,0,1-.42.94,2.06,2.06,0,0,1-1.68.65,1.94,1.94,0,0,1-1.91-2.14v-5.53a.49.49,0,0,0-.44-.54Z" transform="translate(-185.27 -178.82)"/></svg>