<svg id="Layer_1" data-name="Layer 1" xmlns="http://www.w3.org/2000/svg" viewBox="0 0 57.84 45.4"><defs><style>.cls-1{fill:none;stroke:#7f7f7f;stroke-miterlimit:10;stroke-width:0;}.cls-2{fill:#0a0a0a;}</style></defs><path class="cls-1" d="M258.7,198a12.93,12.93,0,1,0-12.93,12.91A12.92,12.92,0,0,0,258.7,198m6.75-8.74a2.94,2.94,0,1,0-2.94,2.94,2.93,2.93,0,0,0,2.94-2.94M255.1,198a9.33,9.33,0,1,0-9.33,9.31A9.32,9.32,0,0,0,255.1,198" transform="translate(-216.84 -172.89)"/><path class="cls-2" d="M258.59,178.29a2.26,2.26,0,0,0,1.17.32c3.39,0,9-.47,11.62.89,2.84,1.45,3.24,4,3.27,7.24q.08,11.74,0,23.46-.06,8.1-7.72,8.09-21.18,0-42.36-.11c-7.27,0-7.67-3.89-7.71-10q-.06-10.34,0-20.68c0-6.22,1.59-8.63,7.86-8.77q3.54-.07,6.83-.06a3.14,3.14,0,0,0,2.38-1.1c1.78-2.07,3.3-4.47,6.6-4.53s6.43-.1,9.64-.12a6.15,6.15,0,0,1,4.62,1.63c1.28,1.2,2.27,2.88,3.79,3.77m-17-1.5c-4.13,0-4.47,5.7-9.41,5.69-2.86,0-5.63,0-8.32,0a3.22,3.22,0,0,0-3.18,3.19q0,12.3,0,24.92,0,3.74,3.76,3.74,20.68,0,41.39,0c3.42,0,5.05-.39,5.07-4.16q.06-12.4,0-24.58a3.13,3.13,0,0,0-3.11-3.11l-8.48-.07c-4.93-.05-5.19-5.67-9.37-5.67-2.25,0-5,0-8.32,0Z" transform="translate(-216.84 -172.89)"/><path class="cls-2" d="M258.7,198a12.93,12.93,0,1,1-12.93-12.91A12.92,12.92,0,0,1,258.7,198m-3.6,0a9.33,9.33,0,1,0-9.33,9.31A9.32,9.32,0,0,0,255.1,198Z" transform="translate(-216.84 -172.89)"/><path class="cls-2" d="M265.45,189.25a2.94,2.94,0,1,1-2.94-2.93,2.93,2.93,0,0,1,2.94,2.93Z" transform="translate(-216.84 -172.89)"/></svg>