<svg id="Layer_1" data-name="Layer 1" xmlns="http://www.w3.org/2000/svg" viewBox="0 0 45.56 45.45"><defs><style>.cls-1{fill:none;stroke:#858585;stroke-miterlimit:10;stroke-width:0;}.cls-2{fill:#0a0a0a;}</style></defs><path class="cls-1" d="M133.89,210.36a14.77,14.77,0,0,0,10.39,12.28c6,1.59,16.38,2,21.6-2.33a84,84,0,0,0,8.7-8.52c4.21-4.68,4.74-10.42,4.38-16.72-.56-9.73-5.64-16.14-15.73-16.52q-9.27-.35-13-.18-16.06.74-16.64,17a104.29,104.29,0,0,0,.27,15" transform="translate(-133.5 -178.32)"/><path class="cls-1" d="M163.46,203.4a16,16,0,0,1,8.38-1.42c1.31.09,3.26-.6,3.46-2,.91-6.58.3-13.82-6.39-16.94q-2.61-1.22-8.57-1.41c-10.85-.33-23.23-1.36-23.51,13.66-.07,3.76-.07,7.52,0,11.27q.16,12.75,12.17,13.8a39.73,39.73,0,0,0,5.94-.24,2.31,2.31,0,0,0,2.12-2.19c.29-6,.36-11.42,6.42-14.49m11.59,1.22c-3.43,1-6.85-.08-10.12,1.63s-4.17,4.37-4.48,8.24c-.12,1.56-.31,3.14-.56,4.76,0,.3.08.4.37.31a12.13,12.13,0,0,0,4.09-2.09q2.81-2.35,7.52-7.15a13.2,13.2,0,0,0,3.29-5.59.09.09,0,0,0-.11-.11" transform="translate(-133.5 -178.32)"/><path class="cls-2" d="M144.28,222.64a14.77,14.77,0,0,1-10.39-12.28,104.29,104.29,0,0,1-.27-15q.57-16.25,16.64-17,3.7-.17,13,.18c10.09.38,15.17,6.79,15.73,16.52.36,6.3-.17,12-4.38,16.72a84,84,0,0,1-8.7,8.52c-5.22,4.37-15.62,3.92-21.6,2.33m19.18-19.24a16,16,0,0,1,8.38-1.42c1.31.09,3.26-.6,3.46-2,.91-6.58.3-13.82-6.39-16.94q-2.61-1.22-8.57-1.41c-10.85-.33-23.23-1.36-23.51,13.66-.07,3.76-.07,7.52,0,11.27q.16,12.75,12.17,13.8a39.73,39.73,0,0,0,5.94-.24,2.31,2.31,0,0,0,2.12-2.19c.29-6,.36-11.42,6.42-14.49m11.59,1.22c-3.43,1-6.85-.08-10.12,1.63s-4.17,4.37-4.48,8.24c-.12,1.56-.31,3.14-.56,4.76,0,.3.08.4.37.31a12.13,12.13,0,0,0,4.09-2.09q2.81-2.35,7.52-7.15a13.2,13.2,0,0,0,3.29-5.59.09.09,0,0,0-.11-.11Z" transform="translate(-133.5 -178.32)"/></svg>