<svg id="Layer_1" data-name="Layer 1" xmlns="http://www.w3.org/2000/svg" viewBox="0 0 61.21 25.75"><path d="M158.6,200.7v-4.83h4.65v4.83Zm0,13.43V209.3h4.65v4.83Z" transform="translate(-137.51 -192.12)"/><path d="M138,211.6l4.49-.51a3.46,3.46,0,0,0,.86,2.11,2.51,2.51,0,0,0,1.84.69,3,3,0,0,0,2.45-1.38c.67-.91,1.1-2.82,1.29-5.71a5.47,5.47,0,0,1-4.38,2.12,6.44,6.44,0,0,1-4.94-2.3,8.53,8.53,0,0,1-2.08-6,8.71,8.71,0,0,1,2.19-6.18,7.73,7.73,0,0,1,11.64.62q2.37,3,2.36,9.76t-2.46,10a7.85,7.85,0,0,1-6.42,3.06,6.6,6.6,0,0,1-4.59-1.58A7.68,7.68,0,0,1,138,211.6Zm10.51-10.55a5.66,5.66,0,0,0-1-3.63,3,3,0,0,0-2.39-1.29,2.63,2.63,0,0,0-2.14,1.06,5.53,5.53,0,0,0-.85,3.46,5.74,5.74,0,0,0,.92,3.59,2.9,2.9,0,0,0,4.58,0A5,5,0,0,0,148.49,201.05Z" transform="translate(-137.51 -192.12)"/><path d="M177.11,217.43v-5.07h-9.93v-4.23l10.52-16h3.9v16h3v4.25h-3v5.07Zm0-9.32V199.5l-5.58,8.61Z" transform="translate(-137.51 -192.12)"/><path d="M198.72,217.43h-4.65V199.22a15.92,15.92,0,0,1-6,3.67V198.5a13.26,13.26,0,0,0,4-2.34,8.89,8.89,0,0,0,2.93-4h3.77Z" transform="translate(-137.51 -192.12)"/></svg>