<svg id="Layer_1" data-name="Layer 1" xmlns="http://www.w3.org/2000/svg" viewBox="0 0 63.44 42.53"><defs><style>.cls-1{fill:#0a0a0a;}</style></defs><path class="cls-1" d="M228.53,160.36c2.72-2.28,5.49-4.52,8.28-6.72,3.32-2.61,7.71-.58,7.72,3.64q0,11.19,0,22.35c0,4.37-4.2,6.72-7.79,3.88q-4.14-3.28-8.23-6.61c-.22-.18-.34-.13-.35.15-.31,5,0,9.4-5,11.71-1.45.68-4.24,1-8.34,1q-11,0-23.21,0-7.05-.06-9.4-4.92-1.11-2.33-1.11-9.27,0-7.27.06-15.35c0-4,.39-6.73,1.15-8.21,2.2-4.3,6.26-4.63,11.14-4.66l24.13-.08q9.9,0,10.59,9.79a14.55,14.55,0,0,1-.1,3c-.08.49.08.57.46.26m-4.47-3.88a5.11,5.11,0,0,0-5.12-5.11H190.28a5.12,5.12,0,0,0-5.12,5.11v24.16a5.13,5.13,0,0,0,5.12,5.12h28.66a5.12,5.12,0,0,0,5.12-5.12V156.48m16.43.65a.63.63,0,0,0-1-.49l-10.9,8.83a.62.62,0,0,0-.23.49v5.32a.66.66,0,0,0,.23.5l10.91,8.82a.62.62,0,0,0,1-.48v-23Z" transform="translate(-181.1 -147.27)"/></svg>