<svg id="Layer_1" data-name="Layer 1" xmlns="http://www.w3.org/2000/svg" viewBox="0 0 34.43 26.29"><path d="M242.22,184.56a22.44,22.44,0,0,1,14.25,5.11.74.74,0,0,0,1-.07l1.76-2a.76.76,0,0,0-.07-1.08,25.35,25.35,0,0,0-33.91,0,.75.75,0,0,0-.07,1.07l1.75,2a.76.76,0,0,0,1,.07A22.29,22.29,0,0,1,242.22,184.56Z" transform="translate(-225.02 -180.05)"/><path d="M242.22,193.44a13.6,13.6,0,0,1,8.35,2.86.76.76,0,0,0,1-.08l1.91-2.15a.73.73,0,0,0-.07-1.07A17.53,17.53,0,0,0,231,193a.74.74,0,0,0-.08,1.08l1.91,2.15a.76.76,0,0,0,1,.08A13.61,13.61,0,0,1,242.22,193.44Z" transform="translate(-225.02 -180.05)"/><path d="M247.67,200.61a.75.75,0,0,0-.12-1.11,8.78,8.78,0,0,0-10.64,0,.74.74,0,0,0-.13,1.11l4.89,5.49a.75.75,0,0,0,1.11,0Z" transform="translate(-225.02 -180.05)"/></svg>